<?xml version="1.0" encoding="utf-8"?>
<!-- Generator: Adobe Illustrator 16.0.0, SVG Export Plug-In . SVG Version: 6.00 Build 0)  -->
<!DOCTYPE svg PUBLIC "-//W3C//DTD SVG 1.1//EN" "http://www.w3.org/Graphics/SVG/1.1/DTD/svg11.dtd">
<svg version="1.1" id="Layer_1" xmlns="http://www.w3.org/2000/svg" xmlns:xlink="http://www.w3.org/1999/xlink" x="0px" y="0px"
	 width="1267.5px" height="793.503px" viewBox="-23.5 -75.497 1267.5 793.503"
	 enable-background="new -23.5 -75.497 1267.5 793.503" xml:space="preserve">
<g>
	<path fill="#E8E8E8" d="M137.25,622.772h946v-639.03h-946V622.772z M141.25-12.258h938v631.03h-938V-12.258z"/>
	<circle fill="#E8E8E8" cx="611.249" cy="-36.258" r="5"/>
	<path fill="#E8E8E8" d="M1227.25,666.772h-111.789c1.738-4.699,2.691-9.777,2.691-15.076V-17.702
		c0-24.021-19.541-43.562-43.561-43.562H145.71c-24.019,0-43.56,19.541-43.56,43.562v669.4c0,5.297,0.953,10.375,2.691,15.076H-6.75
		c-2.761,0-5,2.238-5,5v16.992c1.333,10.34,45.025,15.006,45.025,15.006h1153.951c2.762,0,41.023-4.666,45.023-15.006v-16.994
		C1232.25,669.013,1230.012,666.772,1227.25,666.772z M106.15,651.696V-17.702c0-21.814,17.746-39.562,39.56-39.562h928.882
		c21.812,0,39.561,17.747,39.561,39.562v669.4c0,5.336-1.068,10.428-2.992,15.076H109.143
		C107.218,662.124,106.15,657.034,106.15,651.696z"/>
</g>
</svg>
