<?xml version="1.0" encoding="utf-8"?>
<!-- Generator: Adobe Illustrator 16.0.0, SVG Export Plug-In . SVG Version: 6.00 Build 0)  -->
<!DOCTYPE svg PUBLIC "-//W3C//DTD SVG 1.1//EN" "http://www.w3.org/Graphics/SVG/1.1/DTD/svg11.dtd">
<svg version="1.1" id="Isolation_Mode" xmlns="http://www.w3.org/2000/svg" xmlns:xlink="http://www.w3.org/1999/xlink" x="0px"
	 y="0px" width="540.457px" height="1002.255px" viewBox="575.104 21.046 540.457 1002.255"
	 enable-background="new 575.104 21.046 540.457 1002.255" xml:space="preserve">
<title>phone_outline</title>
<g>
	<g id="Rectangle_1_copy_5">
		<path fill="#E0E0E0" d="M1018.512,33.343c44.605,0,80.766,36.16,80.766,80.765v816.068c-0.035,44.592-36.174,80.732-80.766,80.766
			H672.179c-44.605,0-80.766-36.16-80.766-80.766l0,0V114.17c0-44.605,36.16-80.766,80.766-80.766l0,0h346.333 M1018.512,29.677
			H672.179c-46.627,0.09-84.404,37.866-84.493,84.493v816.005c0.089,46.627,37.866,84.404,84.493,84.494h346.333
			c46.627-0.09,84.404-37.867,84.493-84.494V114.17C1102.916,67.543,1065.139,29.767,1018.512,29.677L1018.512,29.677z"/>
	</g>
	<g id="Ellipse_2">
		<path fill="#E0E0E0" d="M845.911,922.586c19.303,0,34.951,15.648,34.951,34.953c0,19.303-15.648,34.951-34.951,34.951
			c-19.305,0-34.953-15.648-34.953-34.951C810.979,938.242,826.615,922.605,845.911,922.586 M845.911,918.857
			c-21.363,0-38.681,17.318-38.681,38.682c0,21.361,17.318,38.678,38.681,38.678c21.362,0,38.679-17.316,38.679-38.678
			C884.59,936.176,867.273,918.857,845.911,918.857L845.911,918.857L845.911,918.857z"/>
	</g>
	<g id="Rectangle_4_copy_2">
		<path fill="#E0E0E0" d="M582.07,343.159c-1.277,0-2.311,1.034-2.311,2.311v61.904c0,1.276,1.034,2.311,2.311,2.311h3.466v-66.526
			H582.07z"/>
	</g>
	<g id="Rectangle_4_copy">
		<path fill="#E0E0E0" d="M582.07,261.288c-1.277,0-2.311,1.035-2.311,2.312v61.903c0,1.276,1.034,2.311,2.311,2.311h3.466v-66.526
			H582.07z"/>
	</g>
	<g id="Rectangle_4">
		<path fill="#E0E0E0" d="M582.07,184.523c-1.277,0-2.311,1.035-2.311,2.312v33.76c0,1.276,1.034,2.311,2.311,2.311h3.466v-38.382
			H582.07z"/>
	</g>
	<g id="Rectangle_4_copy_4">
		<path fill="#E0E0E0" d="M1108.597,261.288h-3.467v66.526h3.467c1.275,0,2.311-1.035,2.311-2.311v-61.903
			C1110.907,262.322,1109.872,261.288,1108.597,261.288z"/>
	</g>
	<g id="Rectangle_2">
		<path fill="#E0E0E0" d="M805.987,86.139h78.728c2.32,0,4.2,1.88,4.2,4.2l0,0v0.932c0,2.326-1.886,4.212-4.212,4.212h-78.716
			c-2.326,0-4.212-1.886-4.212-4.212v-0.919C801.775,88.025,803.661,86.139,805.987,86.139z"/>
	</g>
	<g id="Ellipse_1">
		<circle fill="#E0E0E0" cx="761.058" cy="90.823" r="9.17"/>
	</g>
	<g id="Ellipse_1_copy">
		<circle fill="#E0E0E0" cx="845.339" cy="51.746" r="6.113"/>
	</g>
</g>
</svg>
